<?xml version="1.0" encoding="iso-8859-1"?>
<!-- Generator: Adobe Illustrator 19.0.0, SVG Export Plug-In . SVG Version: 6.00 Build 0)  -->
<svg version="1.1" id="Layer_1" xmlns="http://www.w3.org/2000/svg" xmlns:xlink="http://www.w3.org/1999/xlink" x="0px" y="0px"
	 viewBox="0 0 512 512" style="enable-background:new 0 0 512 512;" xml:space="preserve">
<g>
	<g>
		<path d="M488.727,62.061h-31.03H279.273V38.788c0-12.853-10.42-23.273-23.273-23.273c-12.853,0-23.273,10.42-23.273,23.273v23.273
			H54.303h-31.03C10.42,62.061,0,72.481,0,85.333c0,12.853,10.42,23.273,23.273,23.273h7.758v271.515
			c0,12.853,10.42,23.273,23.273,23.273h178.424v46.545h-54.303c-12.853,0-23.273,10.42-23.273,23.273
			c0,12.853,10.42,23.273,23.273,23.273h155.152c12.853,0,23.273-10.42,23.273-23.273c0-12.853-10.42-23.273-23.273-23.273h-54.303
			v-46.545h178.424c12.853,0,23.273-10.42,23.273-23.273V108.606h7.758c12.853,0,23.273-10.42,23.273-23.273
			C512,72.481,501.58,62.061,488.727,62.061z M434.424,356.848H77.576V108.606h356.849V356.848z"/>
	</g>
</g>
<g>
</g>
<g>
</g>
<g>
</g>
<g>
</g>
<g>
</g>
<g>
</g>
<g>
</g>
<g>
</g>
<g>
</g>
<g>
</g>
<g>
</g>
<g>
</g>
<g>
</g>
<g>
</g>
<g>
</g>
</svg>
